# xmcd
#
# Track frame offsets:
#	150
#	12870
#	27510
#	41117
#	55459
#	69670
#	83205
#	97057
#	112984
#	125923
#	140757
#	152129
#	165358
#	181052
#
# Disc length: 2578 seconds
#
# Revision: 1
# Processed by: cddbd v1.5.2PL0 Copyright (c) Steve Scherf et al.
# Submitted via: audiograbber 1.83.01
#
DISCID=c30a100e
DTITLE=Various Artist - De Club van Sinterklaas 2006
DYEAR=2006
DGENRE=Country
TTITLE0=Paniek In De Confettifabriek
TTITLE1=Oh, Kom Er Eens Kijken
TTITLE2=Ik Ben Een Ster
TTITLE3=Op De Hoge Hoge Daken
TTITLE4=Dat Doe Ik Graag
TTITLE5=Zachtjes Gaan De Paardevoetjes
TTITLE6=Daar Wordt Aan De Deur Geklopt
TTITLE7=Je Allerfavorietste Speelgoed
TTITLE8=Jongens Heb Je Het Al Vernomen
TTITLE9=Ik Ben De Hoge Hoogte Piet
TTITLE10=Hij Komt Die Lieve Goede Sint
TTITLE11=De Slimste
TTITLE12=Samen Op De Daken
TTITLE13=De Streken Van Tante Toets
EXTD=
EXTT0=
EXTT1=
EXTT2=
EXTT3=
EXTT4=
EXTT5=
EXTT6=
EXTT7=
EXTT8=
EXTT9=
EXTT10=
EXTT11=
EXTT12=
EXTT13=
PLAYORDER=
